<svg width="14" height="14" viewBox="0 0 14 14" fill="none" xmlns="http://www.w3.org/2000/svg">
<path d="M11.6875 2.28125C11.0625 1.65625 10.3438 1.17708 9.53125 0.84375C8.73958 0.510417 7.90625 0.34375 7.03125 0.34375C6.11458 0.34375 5.26042 0.520833 4.46875 0.875C3.67708 1.20833 2.96875 1.67708 2.34375 2.28125C1.73958 2.88542 1.26042 3.58333 0.90625 4.375C0.572917 5.16667 0.40625 6.02083 0.40625 6.9375C0.40625 8.125 0.708333 9.22917 1.3125 10.25L0.375 13.6562L3.875 12.75C4.85417 13.2917 5.90625 13.5625 7.03125 13.5625C7.94792 13.5625 8.80208 13.3958 9.59375 13.0625C10.3854 12.7083 11.0833 12.2292 11.6875 11.625C12.2917 11.0208 12.7604 10.3229 13.0938 9.53125C13.4479 8.71875 13.625 7.85417 13.625 6.9375C13.625 6.0625 13.4583 5.22917 13.125 4.4375C12.7917 3.625 12.3125 2.90625 11.6875 2.28125ZM7.03125 12.4375C6.03125 12.4375 5.09375 12.1771 4.21875 11.6562L4.03125 11.5312L1.9375 12.0938L2.5 10.0625L2.375 9.875C1.8125 8.97917 1.53125 8 1.53125 6.9375C1.53125 6.1875 1.66667 5.47917 1.9375 4.8125C2.22917 4.14583 2.625 3.5625 3.125 3.0625C3.64583 2.5625 4.22917 2.16667 4.875 1.875C5.54167 1.58333 6.26042 1.4375 7.03125 1.4375C7.76042 1.4375 8.45833 1.58333 9.125 1.875C9.79167 2.14583 10.3854 2.54167 10.9062 3.0625C11.4271 3.58333 11.8229 4.17708 12.0938 4.84375C12.3646 5.51042 12.5 6.20833 12.5 6.9375C12.5 7.70833 12.3542 8.42708 12.0625 9.09375C11.7917 9.73958 11.4062 10.3229 10.9062 10.8438C10.4062 11.3438 9.82292 11.7396 9.15625 12.0312C8.48958 12.3021 7.78125 12.4375 7.03125 12.4375ZM10.0312 8.3125C9.98958 8.29167 9.88542 8.25 9.71875 8.1875C9.55208 8.10417 9.38542 8.02083 9.21875 7.9375C9.07292 7.85417 8.96875 7.80208 8.90625 7.78125C8.84375 7.76042 8.78125 7.75 8.71875 7.75C8.65625 7.75 8.59375 7.79167 8.53125 7.875C8.48958 7.95833 8.40625 8.07292 8.28125 8.21875C8.15625 8.36458 8.07292 8.45833 8.03125 8.5C7.92708 8.625 7.80208 8.64583 7.65625 8.5625C7.57292 8.52083 7.40625 8.44792 7.15625 8.34375C6.92708 8.21875 6.65625 8.01042 6.34375 7.71875C6.09375 7.51042 5.88542 7.29167 5.71875 7.0625C5.57292 6.83333 5.46875 6.67708 5.40625 6.59375C5.36458 6.51042 5.35417 6.44792 5.375 6.40625C5.39583 6.34375 5.4375 6.29167 5.5 6.25C5.52083 6.20833 5.55208 6.16667 5.59375 6.125C5.65625 6.0625 5.69792 6.01042 5.71875 5.96875C5.76042 5.90625 5.79167 5.86458 5.8125 5.84375C5.85417 5.80208 5.88542 5.75 5.90625 5.6875C5.92708 5.625 5.92708 5.57292 5.90625 5.53125C5.90625 5.48958 5.89583 5.44792 5.875 5.40625C5.875 5.38542 5.84375 5.30208 5.78125 5.15625C5.71875 4.98958 5.64583 4.8125 5.5625 4.625C5.47917 4.4375 5.41667 4.29167 5.375 4.1875C5.3125 4.02083 5.25 3.9375 5.1875 3.9375C5.125 3.91667 5.0625 3.89583 5 3.875C4.95833 3.875 4.90625 3.875 4.84375 3.875C4.80208 3.875 4.75 3.875 4.6875 3.875C4.625 3.875 4.55208 3.89583 4.46875 3.9375C4.40625 3.95833 4.33333 4.01042 4.25 4.09375C4.16667 4.17708 4.05208 4.33333 3.90625 4.5625C3.76042 4.77083 3.6875 5.07292 3.6875 5.46875C3.6875 5.73958 3.72917 6 3.8125 6.25C3.91667 6.5 4.02083 6.70833 4.125 6.875C4.25 7.04167 4.32292 7.14583 4.34375 7.1875C4.36458 7.20833 4.44792 7.32292 4.59375 7.53125C4.73958 7.71875 4.92708 7.94792 5.15625 8.21875C5.40625 8.46875 5.69792 8.72917 6.03125 9C6.36458 9.27083 6.73958 9.5 7.15625 9.6875C7.36458 9.77083 7.54167 9.84375 7.6875 9.90625C7.85417 9.94792 7.98958 9.98958 8.09375 10.0312C8.30208 10.0938 8.48958 10.125 8.65625 10.125C8.84375 10.125 9.01042 10.1146 9.15625 10.0938C9.26042 10.0729 9.38542 10.0312 9.53125 9.96875C9.69792 9.88542 9.84375 9.79167 9.96875 9.6875C10.1146 9.5625 10.2083 9.4375 10.25 9.3125C10.3333 9.10417 10.375 8.92708 10.375 8.78125C10.375 8.63542 10.3646 8.54167 10.3438 8.5C10.3229 8.47917 10.2812 8.45833 10.2188 8.4375C10.1771 8.39583 10.1146 8.35417 10.0312 8.3125Z" fill="#FB6028"/>
</svg>
